# Blender v2.79 (sub 0) OBJ File: ''
# www.blender.org
o Cube.001
v 0.047583 0.000000 -0.895833
v 0.047583 0.000000 -0.670833
v -0.047583 0.000000 -0.670833
v -0.047583 0.000000 -0.895833
v 0.047583 1.900000 -0.895833
v 0.047583 1.900000 -0.670833
v -0.047583 1.900000 -0.670833
v -0.047583 1.900000 -0.895833
vn 0.0000 -1.0000 0.0000
vn 0.0000 1.0000 0.0000
vn 1.0000 0.0000 0.0000
vn -0.0000 -0.0000 1.0000
vn -1.0000 -0.0000 -0.0000
vn 0.0000 0.0000 -1.0000
s off
f 1//1 2//1 3//1 4//1
f 5//2 8//2 7//2 6//2
f 1//3 5//3 6//3 2//3
f 2//4 6//4 7//4 3//4
f 3//5 7//5 8//5 4//5
f 5//6 1//6 4//6 8//6
o Cube
v 0.100000 0.000000 -1.000000
v 0.100000 0.000000 1.000000
v -0.100000 0.000000 1.000000
v -0.100000 0.000000 -1.000000
v 0.100000 2.000000 -0.999999
v -0.100000 2.000000 -1.000000
v 0.100000 0.000000 0.900000
v 0.100000 1.900000 -0.900000
v 0.100000 0.000000 -0.900000
v 0.100000 1.900000 0.900000
v 0.100000 2.000000 1.000001
v -0.100000 2.000000 1.000000
v -0.100000 1.900000 0.900000
v -0.100000 0.000000 0.900000
v -0.100000 1.900000 -0.900000
v -0.100000 0.000000 -0.900000
v -0.200000 0.000000 0.900000
v -0.200000 0.000000 -0.900000
v 0.200000 0.000000 0.900000
v 0.200000 0.000000 -0.900000
vn 0.0000 -1.0000 -0.0000
vn 0.0000 0.0000 -1.0000
vn -1.0000 -0.0000 -0.0000
vn 1.0000 -0.0000 -0.0000
vn -0.0000 -0.0000 1.0000
vn 0.0000 1.0000 0.0000
s off
f 15//7 10//7 11//7 22//7
f 13//8 9//8 12//8 14//8
f 23//9 14//9 12//9 24//9
f 9//10 13//10 16//10 17//10
f 10//11 19//11 20//11 11//11
f 16//10 13//10 19//10 18//10
f 15//10 18//10 19//10 10//10
f 13//12 14//12 20//12 19//12
f 15//12 17//12 24//12 22//12
f 18//8 15//8 22//8 21//8
f 17//11 16//11 23//11 24//11
f 16//7 18//7 21//7 23//7
f 23//9 21//9 20//9 14//9
f 21//9 22//9 11//9 20//9
f 9//7 17//7 24//7 12//7
f 22//12 24//12 26//12 25//12
f 17//12 15//12 27//12 28//12
o Cube.002
v 0.047583 0.000000 0.670833
v 0.047583 0.000000 0.895833
v -0.047583 0.000000 0.895833
v -0.047583 0.000000 0.670833
v 0.047583 1.900000 0.670833
v 0.047583 1.900000 0.895833
v -0.047583 1.900000 0.895833
v -0.047583 1.900000 0.670833
vn 0.0000 -1.0000 0.0000
vn 0.0000 1.0000 0.0000
vn 1.0000 0.0000 0.0000
vn -0.0000 -0.0000 1.0000
vn -1.0000 -0.0000 -0.0000
vn 0.0000 0.0000 -1.0000
s off
f 29//13 30//13 31//13 32//13
f 33//14 36//14 35//14 34//14
f 29//15 33//15 34//15 30//15
f 30//16 34//16 35//16 31//16
f 31//17 35//17 36//17 32//17
f 33//18 29//18 32//18 36//18
